<?xml version="1.0" standalone="no"?>
<!DOCTYPE svg PUBLIC "-//W3C//DTD SVG 20010904//EN"
 "http://www.w3.org/TR/2001/REC-SVG-20010904/DTD/svg10.dtd">
<svg version="1.0" xmlns="http://www.w3.org/2000/svg"
 width="600.000000pt" height="600.000000pt" viewBox="0 0 600.000000 600.000000"
 preserveAspectRatio="xMidYMid meet">
<metadata>
Created by potrace 1.14, written by Peter Selinger 2001-2017
</metadata>
<g transform="translate(0.000000,600.000000) scale(0.100000,-0.100000)"
fill="#000000" stroke="none">
<path d="M2512 5954 c-178 -86 -306 -247 -334 -418 -10 -61 -2 -168 17 -217 4
-10 -24 -23 -97 -47 -216 -69 -433 -197 -698 -413 -52 -42 -104 -78 -115 -81
-14 -2 -20 -11 -20 -28 0 -20 6 -26 29 -28 25 -3 12 -10 -70 -41 -301 -114
-514 -238 -514 -298 0 -12 27 -47 63 -82 73 -73 240 -163 336 -182 l59 -11
-71 -57 c-198 -158 -396 -424 -530 -714 -116 -251 -129 -302 -81 -333 24 -16
30 -16 92 -1 75 19 322 77 328 77 3 0 37 -113 48 -162 5 -22 -4 -39 -56 -104
-108 -133 -121 -152 -114 -170 5 -14 15 -16 64 -11 31 4 69 10 85 13 l27 6 -6
-53 c-8 -75 12 -243 37 -298 11 -25 48 -75 83 -111 44 -45 66 -76 71 -100 11
-56 65 -149 109 -187 55 -47 169 -100 237 -109 29 -4 59 -9 66 -13 6 -3 32
-34 57 -68 50 -69 128 -135 223 -191 34 -20 61 -37 60 -38 -1 -1 -42 7 -92 17
-101 21 -305 26 -370 8 -84 -22 -146 -52 -176 -87 -28 -32 -31 -40 -26 -83 4
-32 2 -49 -6 -52 -17 -7 -190 -131 -268 -193 -43 -34 -74 -69 -88 -97 -20 -40
-163 -550 -217 -772 -35 -146 -32 -225 11 -225 21 0 23 5 27 88 4 70 24 159
102 447 54 198 107 385 119 415 21 51 32 62 157 158 143 108 200 142 242 142
24 0 276 -157 325 -203 43 -39 17 -97 -43 -97 -22 0 -41 12 -74 46 -87 89
-137 95 -267 34 -47 -22 -97 -40 -110 -40 -31 0 -42 -29 -18 -46 23 -17 49
-11 154 38 119 56 120 55 273 -100 73 -73 129 -139 133 -154 9 -35 -1 -65 -26
-79 -17 -9 -32 1 -107 72 -138 130 -159 137 -282 99 -35 -12 -78 -19 -95 -18
-25 2 -31 -1 -33 -19 -2 -16 4 -26 22 -34 22 -10 41 -8 117 16 69 21 96 25
112 18 12 -6 68 -54 124 -107 108 -102 134 -146 113 -186 -17 -31 -43 -24
-115 30 -36 27 -77 53 -91 56 -13 3 -59 2 -102 -2 -42 -5 -89 -8 -103 -6 -36
3 -53 -19 -35 -43 13 -18 20 -18 112 -8 118 13 126 10 232 -78 86 -71 94 -85
63 -111 -33 -26 -79 -22 -156 13 -64 30 -71 32 -153 25 -48 -3 -91 -11 -96
-16 -7 -7 -6 -33 2 -78 7 -37 18 -97 24 -135 l12 -67 -34 -35 -34 -35 40 0
c22 0 45 5 51 11 8 8 17 8 31 0 14 -8 200 -11 599 -11 l579 0 12 145 c17 200
58 467 88 573 30 104 113 281 152 327 25 28 30 43 36 120 3 49 8 91 11 93 6 6
326 21 476 22 l136 0 7 -38 c3 -20 6 -64 6 -98 0 -33 7 -83 15 -110 8 -27 15
-59 15 -71 0 -24 -49 -120 -153 -298 -125 -216 -173 -318 -253 -542 l-44 -123
224 0 223 0 33 47 c58 81 229 250 342 339 124 95 119 101 62 -78 -38 -120 -42
-172 -17 -208 9 -13 19 -40 22 -59 6 -33 9 -36 44 -39 28 -2 37 0 37 12 0 19
8 19 85 1 45 -11 128 -15 325 -15 l266 0 17 29 c9 16 17 39 17 51 0 36 -56 96
-135 145 -96 60 -109 98 -44 125 41 17 133 -8 258 -71 52 -26 101 -45 108 -42
57 22 -94 185 -235 255 -86 43 -106 65 -95 106 11 43 77 47 191 10 50 -16 78
-34 137 -89 71 -66 112 -88 134 -74 19 11 12 43 -11 51 -13 3 -51 33 -85 65
-68 65 -139 103 -224 120 -94 19 -134 76 -91 129 29 36 103 38 209 5 97 -30
149 -64 248 -164 60 -62 90 -75 102 -44 5 13 -19 41 -93 110 -109 103 -159
132 -279 163 -88 22 -121 46 -110 79 11 34 72 45 189 31 130 -14 172 -26 219
-58 46 -31 175 -184 255 -300 53 -79 57 -87 55 -140 -1 -63 -54 -226 -127
-392 l-44 -100 31 0 c31 0 34 4 75 101 68 158 122 332 122 392 0 69 -29 129
-119 244 -39 51 -71 97 -71 102 0 5 37 108 82 228 133 356 124 380 -171 439
-238 47 -673 124 -703 124 -53 0 -98 -37 -128 -104 -15 -34 -76 -196 -135
-361 -59 -165 -111 -310 -116 -321 -7 -20 -10 -19 -58 25 -27 25 -106 81 -175
124 -109 68 -128 84 -144 120 -17 39 -73 98 -117 122 -16 10 -13 14 24 38 86
57 240 235 274 317 l14 32 23 -36 c26 -43 114 -106 147 -106 13 0 23 3 24 8 0
4 1 53 2 109 l2 102 38 39 c37 38 42 40 120 46 223 19 358 87 417 211 17 35
45 86 64 114 37 54 82 178 92 251 l6 45 72 0 c68 0 106 13 106 35 0 4 -22 34
-49 68 -70 87 -76 111 -55 222 12 70 15 127 11 243 -5 164 -21 240 -76 375
-17 41 -25 71 -18 68 70 -29 122 -36 248 -34 127 3 134 4 137 24 2 15 -12 32
-52 63 -67 50 -87 88 -109 203 -37 189 -115 378 -210 503 -17 22 -58 68 -91
103 -57 60 -59 63 -31 57 107 -24 160 -41 232 -75 74 -34 85 -37 98 -24 13 14
13 20 -5 54 -50 98 -214 287 -292 336 -104 66 -249 83 -363 44 -32 -11 -60
-19 -61 -17 -2 2 8 27 22 57 28 61 65 104 107 126 20 11 27 21 25 37 -3 21 -9
22 -101 25 -107 3 -184 -12 -272 -51 l-50 -23 -17 84 c-20 98 -102 274 -171
364 -79 105 -178 208 -198 208 -32 0 -34 -26 -10 -144 22 -109 42 -258 37
-263 -2 -2 -15 15 -31 37 -36 53 -110 120 -166 153 -56 33 -184 61 -342 76
-118 11 -244 44 -321 83 -52 27 -139 110 -179 170 -23 36 -36 48 -51 46 -19
-3 -21 -9 -19 -83 2 -67 19 -152 50 -248 4 -12 1 -16 -8 -13 -8 2 -26 7 -41
10 -23 5 -28 13 -38 63 -8 34 -10 102 -8 168 6 125 23 188 94 329 49 100 52
111 26 125 -15 8 -39 0 -110 -35z m-2 -104 c-11 -22 -33 -78 -49 -125 -16 -48
-32 -89 -37 -93 -4 -4 -4 -1 0 6 4 7 2 12 -5 12 -7 0 -20 7 -30 16 -16 14 -19
14 -34 -9 -9 -14 -25 -48 -36 -76 -23 -62 -25 -203 -5 -298 15 -71 6 -73 -28
-5 -82 164 -48 360 87 495 43 43 140 117 154 117 2 0 -6 -18 -17 -40z m256
-483 c85 -43 213 -76 357 -92 154 -17 252 -37 298 -61 46 -24 31 -25 -35 -3
-71 24 -205 37 -266 26 -25 -4 -83 -6 -130 -4 -74 3 -98 9 -182 46 -81 36
-105 52 -139 92 -23 27 -45 65 -49 85 l-8 35 52 -49 c29 -28 75 -61 102 -75z
m1038 -172 c45 -68 91 -160 115 -233 29 -85 25 -112 -4 -33 -27 72 -69 136
-154 234 -47 54 -60 77 -66 114 -4 25 -9 53 -13 62 -8 23 83 -84 122 -144z
m-1574 32 c0 -7 -32 -22 -71 -34 -110 -35 -222 -96 -369 -199 -246 -174 -261
-183 -315 -190 l-50 -6 25 21 c201 170 440 313 645 387 97 35 135 41 135 21z
m887 -182 c93 -18 202 -53 258 -84 35 -19 36 -21 12 -16 -176 36 -221 45 -240
44 -12 0 -67 2 -122 6 -55 4 -143 2 -195 -3 -93 -10 -95 -10 -119 13 -14 14
-22 27 -19 31 25 24 311 31 425 9z m-636 -84 c27 -22 33 -19 -81 -52 -41 -12
-127 -40 -190 -64 -63 -23 -185 -59 -270 -79 -243 -58 -355 -92 -588 -175
-244 -88 -370 -138 -392 -156 -41 -34 -123 -66 -151 -60 -38 9 -27 24 50 68
249 144 609 266 1086 368 134 28 266 74 460 159 32 14 51 11 76 -9z m1152 -20
c220 -76 446 -233 556 -386 l32 -44 -73 45 c-40 24 -83 57 -95 73 -68 87 -236
202 -344 236 -25 8 -179 95 -179 101 0 8 24 3 103 -25z m667 -116 c-9 -11 -31
-15 -84 -14 l-71 1 50 13 c28 7 65 14 84 14 29 1 32 -1 21 -14z m295 -214 c30
-11 75 -34 101 -53 44 -31 164 -161 185 -200 19 -35 -10 -17 -80 48 -99 93
-198 171 -255 199 -61 31 -31 34 49 6z m-410 -166 c150 -107 256 -259 376
-541 114 -271 146 -476 136 -878 -6 -226 -16 -303 -50 -401 l-14 -40 -17 76
c-16 71 -16 83 1 200 33 235 18 618 -33 851 -9 40 -18 85 -20 100 -5 35 -63
187 -99 259 -41 80 -129 213 -176 264 -23 24 -81 74 -130 111 -134 99 -115 99
26 -1z m249 -20 c-4 -8 -8 -15 -10 -15 -2 0 -4 7 -4 15 0 8 4 15 10 15 5 0 7
-7 4 -15z m-3441 -173 c-34 -3 -103 19 -103 32 0 1 33 -4 73 -13 69 -15 70
-16 30 -19z m3842 -253 c36 -69 91 -234 110 -329 24 -123 33 -148 73 -192 l36
-40 -35 4 c-30 3 -38 10 -61 54 -16 28 -51 138 -79 245 -28 106 -66 231 -86
279 -19 47 -37 92 -40 100 -8 24 56 -71 82 -121z m-3653 6 c-105 -111 -271
-317 -343 -428 -59 -90 -170 -302 -229 -439 -27 -63 -37 -77 -59 -81 -14 -3
-28 -3 -30 -1 -15 15 168 410 239 515 132 195 283 363 413 461 43 32 81 58 84
58 3 0 -31 -38 -75 -85z m2622 -693 c-1 -2 -37 6 -80 16 -121 30 -149 34 -296
41 l-137 6 73 107 c74 108 179 305 231 431 l28 68 92 -333 c50 -183 90 -334
89 -336z m-317 517 c-146 -309 -298 -512 -512 -685 -49 -40 -91 -71 -93 -70
-5 5 80 321 90 333 5 7 7 16 4 21 -8 13 166 3 179 -10 7 -7 1 -9 -17 -6 -16 3
-28 1 -28 -3 0 -5 11 -9 24 -9 18 0 48 25 114 98 87 96 146 185 242 369 24 46
45 81 47 79 2 -2 -20 -55 -50 -117z m403 -462 c54 -142 69 -170 94 -187 34
-21 28 -27 -7 -8 -19 10 -20 9 -10 -4 7 -8 10 -18 6 -22 -4 -4 1 -4 11 0 16 6
17 2 10 -42 -3 -27 -11 -60 -17 -74 l-9 -25 -15 34 c-20 48 -163 548 -162 569
0 19 7 1 99 -241z m-1018 -73 c-64 -272 -65 -276 -48 -299 12 -17 17 -18 41
-7 43 20 223 169 308 256 l79 80 156 -1 c134 0 175 -4 277 -27 66 -15 125 -33
131 -39 10 -11 94 -263 94 -282 0 -5 -8 -1 -17 7 -22 20 -106 62 -154 77 -108
35 -290 30 -392 -10 -67 -27 -187 -106 -187 -125 0 -25 33 -15 104 31 94 61
175 85 285 85 83 0 194 -19 209 -35 4 -5 -2 -5 -12 -1 -11 4 -68 7 -126 7 -94
0 -117 -4 -190 -30 -108 -40 -162 -72 -234 -140 -60 -58 -86 -97 -79 -118 9
-26 46 -12 112 42 56 45 221 135 249 135 3 0 -16 -15 -44 -34 -65 -44 -127
-115 -151 -171 -18 -45 -18 -45 -68 -45 -54 -1 -167 -7 -285 -16 -67 -6 -78
-9 -105 -38 l-30 -31 -149 1 c-127 1 -150 3 -158 17 -21 38 -47 42 -324 47
l-271 5 175 125 c276 196 507 376 590 461 43 43 118 127 167 188 50 60 91 106
93 102 1 -5 -19 -102 -46 -217z m-122 126 c0 -14 -108 -137 -178 -201 -154
-143 -821 -621 -978 -702 l-32 -16 10 32 c7 23 25 42 57 63 l46 29 -32 3 c-38
4 -40 -4 37 162 53 112 55 140 14 140 -19 0 -30 -12 -53 -57 -28 -56 -76 -112
-86 -101 -3 2 -8 32 -11 66 -8 74 -5 78 103 159 91 67 256 159 384 214 100 43
127 63 47 36 -126 -44 -421 -211 -499 -283 -26 -25 -39 -30 -39 -16 0 10 182
142 225 164 17 8 64 33 105 55 150 80 214 100 325 102 122 2 135 5 135 37 0
18 -6 24 -22 25 -36 1 52 26 202 59 189 40 240 47 240 30z m2060 -324 c15 -94
12 -271 -7 -365 -20 -101 -11 -149 42 -223 l35 -48 -25 0 c-61 0 -85 131 -71
383 8 131 6 178 -8 270 -9 62 -16 123 -15 137 1 34 36 -74 49 -154z m-655 -81
c9 -117 29 -272 62 -468 l26 -158 -38 -55 c-21 -30 -39 -53 -40 -52 -5 5 -25
456 -29 658 -5 198 6 240 19 75z m-89 37 c-12 -11 -16 6 -9 39 l8 34 3 -33 c2
-19 1 -36 -2 -40z m-3016 16 c0 -39 -21 -161 -26 -155 -3 2 -15 43 -28 90
l-24 86 27 4 c14 2 32 5 39 6 7 0 12 -11 12 -31z m257 -50 c-38 -95 -77 -311
-93 -510 -6 -84 -8 -88 -45 -124 -21 -21 -41 -36 -43 -33 -6 6 12 183 30 279
18 101 53 220 93 320 28 69 72 143 79 135 2 -2 -7 -32 -21 -67z m2723 -107
c-1 -15 -40 -52 -50 -46 -16 10 -12 36 7 50 16 12 43 10 43 -4z m-3042 -121
c-17 -52 -25 -63 -56 -75 -19 -9 -37 -14 -39 -12 -3 3 108 146 114 147 1 0 -7
-27 -19 -60z m3528 -245 c-183 -146 -189 -150 -167 -114 11 19 62 68 113 110
72 60 94 73 99 61 4 -11 -10 -29 -45 -57z m-1283 -43 c-7 -76 6 -100 54 -104
48 -4 81 -44 63 -77 -6 -12 -22 -26 -36 -31 -13 -5 -24 -13 -24 -18 0 -22 64
-94 112 -128 l53 -36 -66 5 c-36 3 -78 11 -93 18 -21 10 -29 10 -39 0 -30 -31
73 -61 211 -61 78 0 259 21 305 36 12 4 17 0 17 -14 0 -16 -10 -20 -61 -26
-117 -12 -481 -6 -608 9 -159 20 -174 28 -194 102 -25 92 -39 185 -40 280 l-2
88 40 6 c22 3 101 7 177 8 l136 1 -5 -58z m-812 28 c10 -15 8 -59 -12 -228 -9
-69 -15 -90 -23 -83 -30 25 -203 81 -282 92 -186 24 -402 -7 -419 -62 -19 -57
34 -86 127 -68 95 18 349 16 429 -4 37 -9 83 -17 103 -19 30 -2 36 -6 36 -24
0 -34 -22 -44 -122 -55 -123 -13 -471 -16 -580 -6 l-87 9 6 31 c3 18 19 74 34
125 l28 92 -19 62 c-11 35 -16 66 -11 71 5 5 37 26 72 48 l64 39 323 -2 c274
-3 324 -5 333 -18z m1449 10 c0 -12 -28 -25 -36 -17 -9 9 6 27 22 27 8 0 14
-5 14 -10z m-1098 -110 c21 -10 29 -22 33 -49 16 -119 49 -261 67 -293 14 -24
37 -45 64 -58 89 -43 498 -71 749 -51 l140 11 20 -27 c11 -15 35 -43 53 -64
17 -20 32 -40 32 -44 0 -16 -96 -120 -159 -172 -79 -65 -138 -100 -278 -163
-120 -55 -149 -78 -165 -133 -7 -21 -17 -41 -22 -42 -6 -2 -114 -6 -241 -10
-185 -5 -228 -4 -217 6 12 13 17 115 6 143 -3 9 -12 16 -20 16 -20 0 -34 -34
-34 -85 0 -25 5 -55 10 -66 13 -24 -5 -26 -35 -3 -16 12 -21 30 -25 107 -5 86
-6 92 -27 95 -22 3 -23 1 -23 -92 0 -95 0 -96 -25 -96 -20 0 -25 6 -31 35 -3
19 -3 55 0 80 6 37 4 46 -10 52 -28 10 -44 -24 -44 -94 0 -35 -4 -63 -8 -63
-21 0 -41 28 -44 60 -2 27 -7 35 -23 35 -16 0 -21 -8 -23 -39 l-3 -39 -54 7
c-85 10 -156 27 -153 37 2 5 41 58 88 119 l85 110 135 -8 c308 -17 496 -3 575
41 69 39 112 162 66 187 -15 7 -53 3 -153 -19 -73 -16 -233 -49 -355 -72
l-222 -43 -27 27 c-66 67 -88 55 -239 -133 -150 -187 -128 -178 -279 -106
-222 107 -355 257 -367 416 l-4 45 70 -5 c119 -8 546 -3 632 9 153 20 173 46
199 262 9 74 19 140 23 148 13 27 73 41 156 37 44 -2 92 -9 107 -16z m1122
-332 c-10 -15 -33 -8 -39 13 -5 14 -1 25 12 34 16 12 19 11 25 -12 4 -15 5
-30 2 -35z m39 -119 c4 -16 3 -18 -9 -8 -7 6 -11 15 -8 20 8 13 11 11 17 -12z
m-758 -190 c-11 -19 -33 -38 -60 -50 -58 -26 -235 -42 -355 -33 l-95 7 235 47
c129 25 242 49 250 52 35 14 41 9 25 -23z m744 -112 c0 -21 -1 -21 -9 -2 -12
28 -12 37 0 30 6 -3 10 -16 9 -28z m-166 -117 c-23 -39 -126 -157 -175 -199
-35 -31 -37 -31 -43 -11 -4 12 -5 22 -3 24 61 38 167 129 195 166 42 57 53 64
26 20z m-1968 -121 c64 -12 211 -65 220 -79 3 -4 -15 -32 -40 -62 -25 -29 -89
-107 -142 -173 -94 -116 -97 -119 -107 -94 -6 15 -18 34 -26 44 -23 27 -306
212 -345 225 -25 8 -35 18 -40 40 -8 37 -3 46 46 70 96 49 266 61 434 29z
m1674 -51 c17 -49 26 -138 13 -138 -24 0 -42 13 -42 31 0 10 -9 28 -20 39 -24
24 -25 48 -4 78 21 31 40 27 53 -10z m-1143 -39 c51 -10 67 -19 114 -65 30
-30 64 -60 75 -68 19 -13 18 -15 -18 -55 -20 -23 -37 -47 -37 -54 0 -18 -39
-53 -68 -62 -21 -6 -21 -5 -11 19 21 45 -13 110 -98 194 -62 60 -73 75 -63 87
15 18 29 18 106 4z m244 -64 c0 -22 -3 -24 -18 -16 -10 5 -24 17 -32 25 -11
14 -8 16 19 16 27 0 31 -4 31 -25z m128 -11 c3 -20 -18 -33 -55 -34 -14 0 -18
42 -6 54 15 15 58 1 61 -20z m-465 -64 c36 -33 70 -74 77 -90 11 -27 10 -33
-7 -53 -12 -12 -24 -32 -28 -44 -6 -22 -19 -28 -55 -25 -8 0 -54 -6 -102 -14
-48 -8 -113 -14 -143 -12 l-56 3 58 72 c32 40 84 107 116 148 32 41 63 75 67
75 5 0 38 -27 73 -60z m1405 -178 c11 -11 69 -49 130 -86 107 -64 189 -125
204 -150 8 -14 -76 -106 -196 -216 -144 -131 -605 -470 -640 -470 -11 0 -27 9
-33 19 -10 16 -5 38 32 133 46 115 215 432 255 478 25 27 87 163 96 209 4 17
9 31 13 31 4 0 14 13 24 29 16 27 28 33 85 40 6 0 20 -7 30 -17z m-1418 -127
c0 -10 -10 -15 -27 -15 -27 1 -27 1 -9 15 25 19 36 19 36 0z m314 -1 c9 -8 16
-17 16 -19 0 -2 -15 -50 -34 -107 -39 -115 -67 -272 -93 -515 -18 -163 -18
-163 -43 -163 -21 0 -28 9 -47 58 -11 31 -44 118 -73 192 -28 74 -59 164 -69
200 l-18 64 45 101 c24 55 55 124 68 153 l23 52 105 0 c82 0 108 -3 120 -16z
m-431 -12 c-5 -11 -18 -13 -54 -10 -30 3 -52 1 -57 -6 -5 -6 -33 -63 -62 -126
-29 -63 -55 -117 -57 -119 -1 -2 -11 3 -21 12 -10 10 -30 17 -45 17 -63 0 -77
-79 -20 -115 42 -26 36 -41 -14 -37 -32 3 -44 -1 -55 -17 -14 -20 -16 -17 -21
40 -5 57 -3 64 18 81 14 10 29 35 34 56 16 57 -2 106 -64 171 l-53 56 114 -3
c73 -3 114 0 114 7 0 6 45 9 124 9 105 -1 123 -3 119 -16z m-367 -487 c15 -13
20 -25 15 -34 -7 -11 -18 -8 -55 14 l-47 27 23 22 c20 18 24 19 32 6 4 -8 19
-24 32 -35z"/>
<path d="M3018 3413 c18 -2 45 -2 60 0 15 2 0 4 -33 4 -33 0 -45 -2 -27 -4z"/>
<path d="M2580 3394 c-112 -21 -252 -56 -246 -61 2 -3 38 3 78 12 40 10 127
28 193 40 66 13 104 23 85 23 -19 0 -69 -6 -110 -14z"/>
<path d="M1888 3053 c7 -3 16 -2 19 1 4 3 -2 6 -13 5 -11 0 -14 -3 -6 -6z"/>
<path d="M2907 1463 c-10 -9 -8 -75 2 -91 12 -19 45 -11 49 12 7 36 -8 86 -27
86 -10 0 -21 -3 -24 -7z"/>
</g>
</svg>
